<svg width="38.74" height="6.78" xmlns="http://www.w3.org/2000/svg" viewBox="0 0 38.74 6.78">
  <defs>
    <style>
      .cls-1 {
        fill: #fff;
      }
    </style>
  </defs>
  <g id="_レイヤー_1-2" data-name="レイヤー 1">
    <g>
      <path class="cls-1" d="M5.71.28l-2.12,3.68v2.71h-1.44v-2.57L0,.28h1.68l1.4,2.57L4.57.28h1.13Z"/>
      <path class="cls-1" d="M8.53,5.64c-.21.22-.46.33-.74.33-.32,0-.57-.11-.76-.34-.19-.23-.28-.68-.28-1.37v-.07c0-.62.1-1.06.29-1.32.19-.26.44-.38.75-.38.29,0,.54.12.74.36.2.24.3.69.3,1.34v.07c0,.7-.1,1.16-.31,1.38ZM10.24,4.07c0-.71-.22-1.29-.65-1.73-.43-.44-1.03-.67-1.79-.67s-1.36.22-1.79.66c-.44.44-.66,1.02-.66,1.74v.31c0,.73.22,1.32.67,1.75.44.43,1.04.65,1.79.65s1.35-.21,1.79-.63c.43-.42.65-1.01.65-1.76v-.31Z"/>
      <path class="cls-1" d="M15.7,6.67h-1.3l-.03-.75c-.16.21-.38.41-.65.59-.28.18-.62.27-1.02.27-.38,0-.68-.11-.89-.34-.22-.23-.33-.64-.33-1.22V1.79h1.35v3.3c0,.25.05.43.16.51.11.09.24.13.39.13.2,0,.38-.04.54-.11.17-.07.31-.19.42-.34V1.79h1.35v4.87Z"/>
      <path class="cls-1" d="M24.19,6.67h-1.3v-3.67l-1.96,3.67h-.74l-1.82-3.67v3.67h-1V.28h1.07l2.39,4.67L23.25.28h.94v6.39Z"/>
      <path class="cls-1" d="M27.2.71c0,.2-.07.37-.21.51-.14.14-.31.21-.51.21s-.36-.06-.5-.21c-.14-.14-.21-.31-.21-.51s.07-.37.21-.5c.14-.14.31-.21.5-.21s.37.07.51.21c.14.14.21.31.21.5ZM27.16,6.67h-1.35V1.79h1.35v4.87Z"/>
      <path class="cls-1" d="M33,6.67h-1.35v-3.42c0-.12-.05-.25-.16-.36-.11-.11-.26-.17-.46-.17s-.36.04-.51.12c-.15.08-.27.19-.38.31v3.5h-1.35V1.79h1.3l.02.78c.1-.23.29-.43.57-.61.28-.18.62-.27,1.02-.27s.72.13.95.38c.23.25.35.64.35,1.17v3.42Z"/>
      <path class="cls-1" d="M37.03,5.66c-.16.1-.34.15-.53.15-.28,0-.49-.1-.62-.31-.13-.2-.2-.56-.2-1.06v-.34c0-.63.08-1.06.25-1.3.17-.24.39-.35.68-.35.2,0,.36.04.49.12.13.08.22.18.28.29v2.42c-.08.14-.2.27-.36.37ZM38.74.28h-1.35v1.81c-.14-.14-.31-.23-.5-.28-.19-.05-.37-.07-.54-.07-.68,0-1.19.21-1.54.61-.35.41-.52.98-.52,1.72v.51c0,.8.16,1.36.48,1.67.32.32.73.48,1.22.48.31,0,.58-.06.79-.17.21-.11.42-.3.62-.57l.03.66h1.3V.28Z"/>
    </g>
  </g>
</svg>
